<svg width="95" height="105" viewBox="0 0 95 105" fill="none" xmlns="http://www.w3.org/2000/svg">
<g clip-path="url(#clip0_1_729)">
<path d="M5.63433 24.5923C7.11977 23.7417 8.42674 22.65 9.95078 22.0197C12.1565 21.1337 14.4811 20.4085 16.883 20.1237C31.7555 18.1983 45.7779 21.0076 57.4198 30.1818C69.3205 39.5377 74.958 52.5339 73.4397 67.9645C72.7104 75.72 70.264 83.0046 66.66 89.9018C65.972 91.1575 65.3644 92.3537 64.3308 94.4871C67.4352 93.8069 69.7985 93.3019 72.2421 92.7374C72.3402 93.038 72.5187 93.2792 72.6762 93.6602C72.1731 94.157 71.7889 94.8146 71.1667 95.1506C68.175 96.9916 65.1237 98.7522 62.0724 100.513C60.0452 101.64 57.9971 102.907 55.7061 101.492C53.2752 100.057 53.1721 97.3962 53.5272 95.0184C54.0881 91.7419 55.0091 88.4477 55.9895 85.2339C56.2338 84.5554 57.356 84.2225 58.0794 83.6871C58.6148 84.4105 59.5103 85.1163 59.5458 85.8365C59.5716 88.0567 59.1779 90.2142 58.9031 92.5325C59.2038 92.4345 59.4835 92.4762 59.5044 92.3364C72.5269 73.1188 73.5384 52.4648 58.1259 35.5064C57.3912 34.6818 56.576 33.9165 55.6001 33.2703C42.5596 23.8872 28.2011 20.4557 12.3608 23.595C10.2982 24.0019 8.29185 24.9892 6.24693 25.7562C6.02986 25.2948 5.79191 24.9733 5.63433 24.5923Z" fill="#00C5E7" fill-opacity="0.3"/>
</g>
<defs>
<clipPath id="clip0_1_729">
<rect width="95.6" height="45.9" fill="white" transform="translate(37.7864 0.796387) rotate(53.4946)"/>
</clipPath>
</defs>
</svg>
